# xmcd
#
# Track frame offsets:
#	150
#	17518
#	36894
#	53494
#	76710
#	101973
#	121619
#	139043
#	155090
#	173710
#	194232
#	209043
#	226401
#	247969
#	263195
#	282733
#	297125
#	314179
#	327638
#
# Disc length: 4645 seconds
#
# Revision: 1
# Processed by: cddbd v1.5.2PL0 Copyright (c) Steve Scherf et al.
# Submitted via: audiograbber 1.83.01
#
DISCID=21122313
DTITLE=Status Quo - The party ain`t over yet...
DYEAR=1900
DGENRE=
TTITLE0=The party ain`t over yet
TTITLE1=Gotta Get Up and Go
TTITLE2=All That Counts Is Love
TTITLE3=Familiar Blues
TTITLE4=Òhe Bubble
TTITLE5=Belavista Man
TTITLE6=Nevashooda
TTITLE7=Velvet Train
TTITLE8=Goodbye Baby
TTITLE9=You Never Stop
TTITLE10=Kick Me When I`m Down
TTITLE11=Cupid Stupid
TTITLE12=Òhis Is Me
TTITLE13=You ll Come Round
TTITLE14=Caroline
TTITLE15=In My Chair
TTITLE16=Living on an Island
TTITLE17=Old Time Rock and Roll
TTITLE18=In The Army Now
EXTD=
EXTT0=
EXTT1=
EXTT2=
EXTT3=
EXTT4=
EXTT5=
EXTT6=
EXTT7=
EXTT8=
EXTT9=
EXTT10=
EXTT11=
EXTT12=
EXTT13=
EXTT14=
EXTT15=
EXTT16=
EXTT17=
EXTT18=
PLAYORDER=
